<?xml version="1.0" standalone="no"?>
<!DOCTYPE svg PUBLIC "-//W3C//DTD SVG 20010904//EN"
 "http://www.w3.org/TR/2001/REC-SVG-20010904/DTD/svg10.dtd">
<svg version="1.0" xmlns="http://www.w3.org/2000/svg"
 width="1024.000000pt" height="1024.000000pt" viewBox="0 0 1024.000000 1024.000000"
 preserveAspectRatio="xMidYMid meet">

<g transform="translate(0.000000,1024.000000) scale(0.100000,-0.100000)"
fill="#000000" stroke="none">
<path d="M2668 7140 c-20 -3 -45 -13 -55 -21 -34 -26 -158 -132 -442 -378
-157 -135 -355 -306 -440 -380 -86 -74 -273 -236 -416 -361 -143 -124 -304
-264 -358 -310 -110 -94 -137 -135 -137 -208 0 -54 25 -100 73 -136 25 -19 46
-22 180 -26 l152 -5 5 -815 c4 -732 7 -818 21 -845 24 -42 61 -80 100 -102 32
-17 92 -18 1334 -21 948 -2 1311 0 1341 9 54 14 109 60 135 111 20 40 21 52
19 840 0 593 2 804 11 814 9 11 43 14 147 14 153 0 203 15 244 72 29 42 36
118 13 168 -19 42 -20 43 -540 490 -366 314 -802 689 -1044 898 -91 79 -182
154 -201 167 -41 27 -90 36 -142 25z m204 -1154 c165 -32 317 -110 440 -225
173 -162 265 -351 284 -583 27 -338 -187 -778 -635 -1303 -219 -257 -240 -275
-282 -242 -34 26 -227 250 -341 397 -282 360 -436 644 -487 897 -66 320 30
625 264 841 122 112 289 194 449 221 81 14 228 12 308 -3z"/>
<path d="M2606 5529 c-111 -26 -234 -127 -288 -237 -26 -52 -32 -77 -36 -155
-10 -200 81 -358 255 -440 63 -30 76 -32 173 -32 98 0 110 2 173 32 225 107
320 380 212 607 -27 56 -115 148 -172 179 -95 51 -218 69 -317 46z"/>
<path d="M6620 6259 c-110 -22 -222 -112 -254 -206 -9 -26 -16 -79 -16 -118 0
-187 93 -279 370 -366 88 -27 112 -39 148 -74 33 -33 42 -50 42 -76 -1 -97
-103 -157 -221 -129 -65 16 -114 62 -130 122 l-13 46 -55 -4 c-31 -3 -85 -7
-120 -10 l-63 -6 7 -46 c20 -136 92 -229 223 -290 49 -23 74 -27 170 -30 127
-5 176 5 265 51 69 36 111 81 146 157 37 80 37 202 0 280 -14 30 -42 71 -61
90 -46 47 -152 101 -263 135 -159 48 -215 89 -215 157 0 70 87 127 177 114 81
-11 138 -58 152 -127 l7 -34 113 -3 113 -3 -7 53 c-22 159 -126 278 -275 312
-71 17 -169 19 -240 5z"/>
<path d="M4833 6238 c2 -7 80 -266 173 -575 l169 -563 151 0 150 0 28 98 c16
53 91 310 167 570 77 260 139 475 139 477 0 3 -59 4 -132 3 l-131 -3 -54 -205
c-29 -113 -78 -302 -109 -420 -31 -118 -58 -217 -59 -219 -2 -2 -11 21 -19 50
-20 72 -193 715 -204 759 l-8 35 -133 3 c-105 2 -132 0 -128 -10z"/>
<path d="M5930 5675 l0 -575 120 0 120 0 0 575 0 575 -120 0 -120 0 0 -575z"/>
<path d="M7308 5675 l-3 -575 118 0 117 0 0 575 0 575 -115 0 -115 0 -2 -575z"/>
<path d="M7670 6138 l0 -113 132 0 133 0 3 -462 2 -463 115 0 115 0 0 466 0
466 135 -4 135 -3 0 113 0 112 -385 0 -385 0 0 -112z"/>
<path d="M8717 6243 c-12 -20 -347 -1120 -347 -1138 0 -3 54 -5 119 -5 l120 0
16 58 c9 31 24 84 34 117 l17 60 184 0 185 0 16 -60 c9 -33 24 -86 33 -117
l17 -58 124 0 124 0 -15 53 c-23 78 -138 448 -199 642 -30 94 -74 233 -98 310
l-44 140 -141 3 c-77 1 -143 -1 -145 -5z m153 -297 c0 -12 102 -363 116 -401
5 -13 -13 -15 -123 -15 l-130 0 61 215 c54 189 76 248 76 201z"/>
<path d="M6034 4948 c-9 -18 -34 -59 -55 -90 -22 -31 -39 -59 -39 -62 0 -4 53
-6 118 -6 l117 0 88 88 c48 48 87 91 87 95 0 4 -67 7 -150 7 l-149 0 -17 -32z"/>
<path d="M6925 4693 c-214 -77 -325 -264 -325 -548 0 -212 45 -356 142 -461
198 -212 585 -187 725 47 29 49 82 213 72 223 -2 2 -55 6 -118 7 l-114 4 -12
-47 c-6 -26 -24 -63 -39 -82 -94 -124 -309 -89 -374 62 -44 103 -48 326 -7
442 52 148 246 199 357 95 32 -30 67 -97 68 -128 0 -16 10 -17 118 -11 64 4
118 8 120 9 1 1 -4 35 -12 74 -28 136 -106 234 -234 294 -62 29 -76 32 -192
34 -101 3 -135 0 -175 -14z"/>
<path d="M4900 4125 l0 -565 120 0 120 0 0 220 0 220 195 0 195 0 0 106 0 106
-192 -3 -193 -4 -3 138 -3 137 210 0 210 0 3 101 c2 55 1 103 -1 105 -2 2
-152 4 -333 4 l-328 0 0 -565z"/>
<path d="M5897 4673 c-2 -10 -51 -169 -107 -353 -56 -184 -128 -420 -160 -525
-31 -104 -60 -200 -64 -212 l-7 -23 123 0 123 0 29 103 c43 152 19 137 221
137 202 0 179 13 220 -130 15 -52 30 -99 34 -103 4 -4 62 -6 128 -5 l121 3
-64 205 c-36 113 -114 362 -174 553 -60 192 -112 352 -115 358 -4 5 -73 9
-154 9 -133 0 -149 -2 -154 -17z m173 -281 c0 -10 25 -101 55 -202 30 -102 55
-191 55 -197 0 -10 -32 -13 -125 -13 -101 0 -125 3 -125 14 0 11 69 254 116
409 7 21 24 13 24 -11z"/>
<path d="M7710 4125 l0 -565 115 0 115 0 0 565 0 565 -115 0 -115 0 0 -565z"/>
<path d="M8150 4125 l0 -565 325 0 325 0 0 110 0 110 -210 0 -210 0 0 455 0
455 -115 0 -115 0 0 -565z"/>
</g>
</svg>
